<svg xmlns="http://www.w3.org/2000/svg" viewBox="0 0 114.09 84.3"><defs><style>.cls-1{fill:#231f20;}.cls-2{fill:#f36e27;}</style></defs><title>logo_1</title><g id="Layer_2" data-name="Layer 2"><g id="Layer_1-2" data-name="Layer 1"><path class="cls-1" d="M6.06.44V30.18c0,2.75,1.21,3.75,3.14,3.75s3.14-1,3.14-3.75V.44h5.72V29.8c0,6.16-3.08,9.69-9,9.69S0,36,0,29.8V.44Z"/><path class="cls-1" d="M30.35,0c5.89,0,8.92,3.52,8.92,9.69v1.22H33.54V9.31c0-2.76-1.1-3.8-3-3.8s-3,1-3,3.8c0,7.93,11.84,9.42,11.84,20.43,0,6.17-3.08,9.69-9,9.69s-9-3.52-9-9.69V27.37H27v2.76c0,2.75,1.21,3.74,3.14,3.74s3.14-1,3.14-3.74c0-7.93-11.85-9.42-11.85-20.44C21.42,3.52,24.45,0,30.35,0Z"/><path class="cls-1" d="M48.85,16.69h8.32V22.2H48.85V33.49H59.32V39H42.79V.44H59.32V6H48.85Z"/><path class="cls-1" d="M75.73,39c-.33-1-.55-1.59-.55-4.73V28.2c0-3.58-1.21-4.9-4-4.9H69.12V39H63.06V.44H72.2c6.28,0,9,2.92,9,8.87v3c0,4-1.26,6.55-4,7.82,3,1.26,4,4.18,4,8.2v6A11.28,11.28,0,0,0,81.9,39ZM69.12,6V17.79h2.37c2.26,0,3.63-1,3.63-4.08V9.91c0-2.75-.93-4-3.08-4Z"/><path class="cls-1" d="M93.35,0c5.9,0,8.93,3.52,8.93,9.69v1.22H96.55V9.31c0-2.76-1.1-3.8-3-3.8s-3,1-3,3.8c0,7.93,11.84,9.42,11.84,20.43,0,6.17-3.08,9.69-9,9.69s-9-3.52-9-9.69V27.37H90v2.76c0,2.75,1.22,3.74,3.14,3.74s3.14-1,3.14-3.74c0-7.93-11.84-9.42-11.84-20.44C84.43,3.52,87.46,0,93.35,0Z"/><path class="cls-1" d="M73.31,84H67.19l-1-7H58.71l-1.05,7H52.1l6.17-38.55h8.87ZM59.48,71.73h5.84L62.4,52.23Z"/><path class="cls-1" d="M94.07,54.93v5c0,6.16-3,9.52-9,9.52H82.17V84h-6V45.41H85C91.09,45.41,94.07,48.76,94.07,54.93Zm-11.9-4V64H85c1.92,0,3-.89,3-3.64V54.55c0-2.76-1.05-3.64-3-3.64Z"/><path class="cls-1" d="M96.88,45.41h6.06V84H96.88Z"/><path class="cls-1" d="M114.05,83.93a3,3,0,0,1-.26.26l-.14.09-.17,0-.29,0a1.27,1.27,0,0,0-.41-.06l-.59-.08-.72-.13-.14,0-.72-.14a5.47,5.47,0,0,0-.58-.15,1.77,1.77,0,0,0-.39-.07.31.31,0,0,1-.3-.16,1.75,1.75,0,0,1-.39-.18c-.53-.18-.91-.32-1.14-.41a4.21,4.21,0,0,1-.6-.29,2.74,2.74,0,0,1-.74-.34,2.32,2.32,0,0,1-.59-.44c-.25-.25-.46-.46-.62-.65a2.44,2.44,0,0,1-.18-.41,1.54,1.54,0,0,1,0-.4.58.58,0,0,1,0-.27,1.49,1.49,0,0,1,.21-.25,1,1,0,0,1,.23-.18.54.54,0,0,1,.22,0,2.81,2.81,0,0,1,.64.23c.25.13.39.22.39.28a.24.24,0,0,1,0,.09q0,.18-.3.18a.27.27,0,0,0-.14,0l-.09,0a.43.43,0,0,1-.29-.08l-.13,0s-.07,0-.08,0a.17.17,0,0,0,0,.12,4.84,4.84,0,0,0,.41.52c.24.28.38.42.43.42a.62.62,0,0,1,.12.06l.23.16a1.24,1.24,0,0,0,.36.21c.11,0,.16,0,.16.07l.13,0,.24.11.23.12a.9.9,0,0,1,.18.12h0l.35.12a1.33,1.33,0,0,0,.28.1s0-.06,0-.17a3.07,3.07,0,0,0-.13-.83.91.91,0,0,1,0-.22,1,1,0,0,1,0-.23.58.58,0,0,1,.27-.21c.12-.06.21-.07.26,0s.07.09.13.25.09.33.13.5.09.44.11.6,0,.16.07.37.08.31.11.31a.1.1,0,0,0,0,.08l.1,0a.48.48,0,0,1,.24,0c.12,0,.38.11.77.2a4.66,4.66,0,0,0,.73.15.73.73,0,0,0,.42.09.61.61,0,0,0,.3.08h.11l.29,0a2.88,2.88,0,0,0,.41,0l.33,0,.26,0a.38.38,0,0,1,.18.09S114.09,83.87,114.05,83.93Z"/><path class="cls-1" d="M112.26,80.78c-.05.06-.09.08-.1.08a.3.3,0,0,0-.2.06.23.23,0,0,1-.11,0,2.06,2.06,0,0,1-.63-.18,9.47,9.47,0,0,1-1-.47,1.25,1.25,0,0,0-.25-.18l-.2-.15a.14.14,0,0,1-.12-.12h-.07c-.08,0-.24-.13-.51-.38a3.44,3.44,0,0,1-.56-.64,1,1,0,0,1-.2-.59.59.59,0,0,1,.12-.37l.5-.54.39-.43.58.21a1.9,1.9,0,0,0,.58.11,1.59,1.59,0,0,0,.85-.26.67.67,0,0,0,.25-.23.9.9,0,0,0,.14-.36c0-.17.11-.25.26-.25a.26.26,0,0,1,.28.21s0,.08,0,.14c0,.46-.33.86-1,1.19l-.26.13a1,1,0,0,1-.26.08L111,78l.23.2c.85.85,1.27,1.52,1.27,2a.82.82,0,0,1-.11.42A.72.72,0,0,0,112.26,80.78Zm-.48-.65a1.17,1.17,0,0,0-.11-.31,2,2,0,0,0-.25-.36A8.58,8.58,0,0,0,109.91,78l-.42-.25a1.18,1.18,0,0,0-.36.24.42.42,0,0,0-.11.24c0,.16.21.42.62.77a7.84,7.84,0,0,0,1.44,1l.41.19.26.1S111.8,80.21,111.78,80.13Z"/><path class="cls-1" d="M110.16,73.5l.18.21a1.49,1.49,0,0,1,.18.24,1,1,0,0,0,.22-.15l.31-.2a7.68,7.68,0,0,0,.82-.58,3.22,3.22,0,0,0,.43-.58.21.21,0,0,1,.21-.09c.09,0,.14.06.16.1a1.57,1.57,0,0,1,.09.31.71.71,0,0,1-.06.26,4.12,4.12,0,0,1-.26.37,6.34,6.34,0,0,1-.63.55c-.3.23-.58.45-.86.64a.16.16,0,0,1-.11.1,2.44,2.44,0,0,0,.61.21,1.8,1.8,0,0,0,.4.1,2.37,2.37,0,0,1,.54.18c.18,0,.26.07.26.18a.51.51,0,0,1-.08.21.85.85,0,0,1-.14.17.35.35,0,0,1-.18,0,1.35,1.35,0,0,1-.37-.06l-.41-.13a3,3,0,0,1-.46-.1,1.18,1.18,0,0,1-.36-.17l-.52-.18c-.6-.22-1-.35-1.24-.41a5.35,5.35,0,0,0-.64-.27c-.2-.1-.51-.23-1-.41l-.41-.14a3.3,3.3,0,0,1-.78-.34,3.5,3.5,0,0,0-.33-.21s0,0,0-.1a.4.4,0,0,1,0-.15.31.31,0,0,1,.08-.11s0-.08.15-.13a.48.48,0,0,1,.26-.06.57.57,0,0,1,.28.09l.14.09.22.14.29.09a1.62,1.62,0,0,1,.3.11l.25.13.21.09.46.2a5.33,5.33,0,0,0,.6.25l.39.13a5.19,5.19,0,0,1,.57.23l-.09-.08-.06-.06s-.08,0-.14-.13a1.56,1.56,0,0,0-.15-.17,9,9,0,0,0-.6-.85c-.27-.35-.43-.55-.5-.62a.21.21,0,0,1-.07-.14.38.38,0,0,1,0-.13.27.27,0,0,1,.11-.18.62.62,0,0,1,.29,0,.32.32,0,0,1,.27.09,2.8,2.8,0,0,1,.32.41,5.2,5.2,0,0,0,.4.53A3.34,3.34,0,0,0,110.16,73.5Z"/><path class="cls-1" d="M112.49,71.07a1.37,1.37,0,0,1-.94.33,3.46,3.46,0,0,1-1.23-.25,5.25,5.25,0,0,1-1.22-.65,2.19,2.19,0,0,1-.72-.81,1,1,0,0,1-.13-.53,1.2,1.2,0,0,1,.13-.5.75.75,0,0,1,.2-.3.92.92,0,0,1,.36-.19l.29,0,.31.06a2.63,2.63,0,0,1,.73.37,2,2,0,0,1,.51.59.86.86,0,0,1,.11.47,1.17,1.17,0,0,1-.08.46.71.71,0,0,1-.27.34l-.09.08.09,0a3,3,0,0,0,1.08.25.89.89,0,0,0,.49-.12c.09,0,.13-.18.13-.4a.71.71,0,0,0,0-.33,1,1,0,0,0-.14-.32l-.18-.26,0,0v0a1.29,1.29,0,0,0-.13-.24,1.05,1.05,0,0,0-.08-.13.06.06,0,0,0,0,0l-.05,0a.27.27,0,0,1,0-.25.24.24,0,0,1,.21-.14,1.17,1.17,0,0,1,.3.21c.14.13.22.22.23.29l0,.08s0,.08.06.09h0a.29.29,0,0,1,.14.21v.09a.58.58,0,0,1,.19.31,1.61,1.61,0,0,1,.09.5A1,1,0,0,1,112.49,71.07Zm-2.6-2a1.23,1.23,0,0,0-.75-.28.41.41,0,0,0-.28.08.24.24,0,0,0,0,.13.68.68,0,0,0,0,.2,1.3,1.3,0,0,0,.32.47,3.42,3.42,0,0,0,.51.47l.24.15a1.16,1.16,0,0,1,0-.18c0-.06,0-.1,0-.1a.46.46,0,0,0,.27-.08.28.28,0,0,0,.11-.22A.84.84,0,0,0,109.89,69.07Z"/><path class="cls-1" d="M112.83,65.09a.28.28,0,0,1,0,.12l-.13.17a.5.5,0,0,1-.23.1l-.42,0a7.62,7.62,0,0,1-1.17-.27c-.56-.16-.92-.27-1.08-.34a1,1,0,0,0-.26,0,.12.12,0,0,0-.12.06,1,1,0,0,0-.06.24,1,1,0,0,0,.27.8,4.47,4.47,0,0,0,1,.79,2,2,0,0,0,1,.37.39.39,0,0,0,.15,0c.06,0,.09-.09.09-.19a.69.69,0,0,0,0-.26,1.49,1.49,0,0,0-.11-.28s-.09-.19-.2-.44a.11.11,0,0,1,0-.1.3.3,0,0,1,.16,0c.06,0,.11,0,.14-.12s.11,0,.21.14a4,4,0,0,1,.37.55,1.89,1.89,0,0,1,.09.53.89.89,0,0,1-1,.84,3,3,0,0,1-1-.19,3.83,3.83,0,0,1-.79-.44,6.21,6.21,0,0,1-.72-.63,1,1,0,0,1-.16-.24,2.4,2.4,0,0,1-.17-.4,2.14,2.14,0,0,1-.12-.63.67.67,0,0,1,.11-.37l0-.15a.19.19,0,0,0-.08-.15l-.38-.17-.77-.29-.75-.29-.89-.35a1.73,1.73,0,0,0-.31-.14.41.41,0,0,1-.2-.09V63a.42.42,0,0,1,.08-.18.54.54,0,0,1,.22-.15,2.42,2.42,0,0,1,.5.11A8.14,8.14,0,0,1,107,63a2.74,2.74,0,0,1,.35.15c.65.28,1.14.46,1.46.56l.53.22a2.24,2.24,0,0,0,.44.16,3.72,3.72,0,0,1,.59.19,1.75,1.75,0,0,0,.29.11l.31.11.8.26a1.53,1.53,0,0,0,.47.07,2,2,0,0,0,.38,0,.23.23,0,0,1,.2.11A.27.27,0,0,1,112.83,65.09Z"/><path class="cls-2" d="M5.86,68a6.29,6.29,0,0,1-.66-.68A1,1,0,0,1,5,67a1.33,1.33,0,0,1-.06-.44L5,65.83a3.32,3.32,0,0,0,.15-1c0-.16.07-.67.21-1.52s.25-1.46.33-1.85l.09-.36q.24-1,.36-1.83c.16-.5.3-1,.41-1.49a5.42,5.42,0,0,0,.16-1A.83.83,0,0,1,7.09,56a3.6,3.6,0,0,1,.46-1C8,53.59,8.38,52.62,8.61,52a10.71,10.71,0,0,1,.74-1.55,7.41,7.41,0,0,1,.87-1.89,6.2,6.2,0,0,1,1.14-1.51A19.28,19.28,0,0,1,13,45.49,5,5,0,0,1,14.08,45a4.1,4.1,0,0,1,1-.11,1.59,1.59,0,0,1,.7.11,3.78,3.78,0,0,1,.65.52,3.9,3.9,0,0,1,.46.6,1.42,1.42,0,0,1,.08.57,7,7,0,0,1-.6,1.63q-.48,1-.72,1a.78.78,0,0,1-.24,0q-.45,0-.45-.75a.8.8,0,0,0-.09-.36l-.12-.24A1.28,1.28,0,0,1,15,47.3a.79.79,0,0,0,.09-.34.18.18,0,0,0-.11-.19.47.47,0,0,0-.31,0,11.92,11.92,0,0,0-1.34,1.07c-.71.61-1.07,1-1.07,1.1l-.16.31a3.77,3.77,0,0,1-.41.59,2.82,2.82,0,0,0-.54.93q0,.39-.18.39s-.07.16-.14.35a4.55,4.55,0,0,1-.28.61q-.12.27-.3.6a2.12,2.12,0,0,1-.3.45h0l-.33.89a4.52,4.52,0,0,0-.24.74q0,.12.42.12a8.15,8.15,0,0,0,2.13-.33,2.35,2.35,0,0,1,.57-.13,2.33,2.33,0,0,1,.6.13,1.5,1.5,0,0,1,.54.69q.21.48.09.66c0,.08-.23.19-.64.33a8.89,8.89,0,0,1-1.28.33q-.93.21-1.53.3l-.95.18c-.53.1-.79.19-.79.27a.26.26,0,0,0-.21.12.4.4,0,0,0-.09.24,1.3,1.3,0,0,1-.12.63c-.1.3-.28,1-.53,2a12,12,0,0,0-.38,1.88A1.79,1.79,0,0,0,7,63.28a1.54,1.54,0,0,0-.18.75,1.26,1.26,0,0,1,0,.3q0,.15-.06.72a10.09,10.09,0,0,0-.06,1L6.55,67a5.86,5.86,0,0,1-.09.66.86.86,0,0,1-.21.45A.31.31,0,0,1,5.86,68Z"/><path class="cls-2" d="M15.57,63.85a1.3,1.3,0,0,1-.42-.21.92.92,0,0,1-.31-.69,3,3,0,0,1,.67-1.6q.18-.36.9-2.49l.6-1.65a1.34,1.34,0,0,0-.06-.74.58.58,0,0,0-.51-.25h-.18a.47.47,0,0,1-.36-.11,1,1,0,0,1-.09-.55A1,1,0,0,1,16,55a2.46,2.46,0,0,1,.51-.42,2.2,2.2,0,0,1,1-.25,1.07,1.07,0,0,1,.72.22.77.77,0,0,1,.25.52,7.42,7.42,0,0,1,.1.84,4,4,0,0,0,0,.62c.1-.1.35-.31.74-.62a11.76,11.76,0,0,0,1-.88,10.33,10.33,0,0,1,1.17-.7,2.59,2.59,0,0,1,.94-.33,1.47,1.47,0,0,1,.66.17,1,1,0,0,1,.45.41,1.81,1.81,0,0,1,.27.87,1.36,1.36,0,0,1-.33.84,1.78,1.78,0,0,1-.69.51,2,2,0,0,1-.6.18.73.73,0,0,1-.46-.27,1,1,0,0,1-.3-.45c0-.08-.25.07-.76.46a12.34,12.34,0,0,0-1.19,1,9.29,9.29,0,0,0-1,1.5c-.33.62-.81,1.56-1.45,2.83l-.42,1a3.21,3.21,0,0,1-.27.67.35.35,0,0,1-.3.2A1.63,1.63,0,0,1,15.57,63.85Z"/><path class="cls-2" d="M27.57,64.67a3.17,3.17,0,0,1-.65-.34,2.73,2.73,0,0,1-1.26-2.07.91.91,0,0,0,0-.27,1.12,1.12,0,0,0,0-.29.7.7,0,0,1,0-.14c-.08-.06-.13-.1-.14-.13a.13.13,0,0,1,0-.11l.08-.12q.12,0,.12-.12a.48.48,0,0,0-.06-.21,2.44,2.44,0,0,1,.1-1.09,8.94,8.94,0,0,1,.53-1.61,13.65,13.65,0,0,1,.77-1.47,8.68,8.68,0,0,1,2.13-2.5,4.39,4.39,0,0,1,1.22-.63,2.76,2.76,0,0,1,.87-.27,1.33,1.33,0,0,1,.75.36,2.5,2.5,0,0,1,1.09.59,2.57,2.57,0,0,1,.59,1.16,5.13,5.13,0,0,1,.18,1.41,8.07,8.07,0,0,1-1,3.69,8.1,8.1,0,0,1-1.05,1.67,14.5,14.5,0,0,1-1.41,1.37,9.82,9.82,0,0,1-1.1.78,3.49,3.49,0,0,1-1.13.39A1.46,1.46,0,0,1,27.57,64.67Zm3.95-5.22a9,9,0,0,0,.54-1.91,2.42,2.42,0,0,0,0-.48A5.24,5.24,0,0,0,32,55.92q-.12-.54-.3-.57a1.29,1.29,0,0,0-.45-.09,2.18,2.18,0,0,0-1.48.81,8.13,8.13,0,0,0-1.24,2,25.35,25.35,0,0,0-1,2.9,4.18,4.18,0,0,0-.15,1,1.51,1.51,0,0,0,.21.85.68.68,0,0,0,.6.32,1.92,1.92,0,0,0,1.11-.5,7,7,0,0,0,1.33-1.49A10.49,10.49,0,0,0,31.52,59.45Z"/><path class="cls-2" d="M50.08,62.56A.68.68,0,0,1,50,63c-.09.13-.18.2-.26.2a2.09,2.09,0,0,1-1.09-.32,1.07,1.07,0,0,1-.53-1V60q0-1.41-.21-1.59c-.3-.16-.82.17-1.55,1a19.5,19.5,0,0,0-2.12,2.92q-.33.54-.54.84t-.33.3a.66.66,0,0,1-.3-.15q-.93-.27-.93-1.05a2.9,2.9,0,0,1,.06-.4c.2-.66.4-1.39.6-2.2s.36-1.5.48-2.06a.31.31,0,0,0-.3-.18,1.19,1.19,0,0,0-.69.3,8.45,8.45,0,0,0-1.92,2.43,16,16,0,0,1-2,2.74,3.89,3.89,0,0,1-.38.55.44.44,0,0,1-.32.2,1.23,1.23,0,0,1-.45-.18A1.59,1.59,0,0,1,36.26,62a11.52,11.52,0,0,1,.27-1.81q.27-1.35.6-2.52a11.67,11.67,0,0,0,.5-1.07,3.11,3.11,0,0,0,.23-.67q.12-.63.3-1.35a2.78,2.78,0,0,1,.27-.82.66.66,0,0,1,.48-.21.69.69,0,0,1,.66.48,1.16,1.16,0,0,1,.33.85,4.5,4.5,0,0,1-.33,1.47,23.42,23.42,0,0,0-1.11,3.24,11.39,11.39,0,0,0,.9-1.08,24.79,24.79,0,0,1,1.86-2.28,2.79,2.79,0,0,1,2.1-1c.92.16,1.45.93,1.6,2.31,0,.24,0,.54-.06.89s-.08.57-.1.67c.08-.12.29-.38.62-.78a10.81,10.81,0,0,1,1.22-1.23,2.06,2.06,0,0,1,1.23-.51,1.11,1.11,0,0,1,.84.39,2,2,0,0,1,.9,1,4.33,4.33,0,0,1,.27,1.64q0,.51,0,.81-.06.6-.06.75A3.33,3.33,0,0,0,50,62.29.32.32,0,0,1,50.08,62.56Z"/></g></g></svg>